<?xml version="1.0" standalone="no"?>
<!DOCTYPE svg PUBLIC "-//W3C//DTD SVG 1.1//EN" "http://www.w3.org/Graphics/SVG/1.1/DTD/svg11.dtd" >
<svg xmlns="http://www.w3.org/2000/svg">
<metadata>
This is a custom SVG webfont generated by Font Squirrel.
Copyright   : Copyright c 2011 TypeSETit LLC typesetitattnetwith Reserved Font Name Alex Brush
Designer    : Robert E Leuschke
Foundry     : Robert E Leuschke
</metadata>
<defs>
<font id="AlexBrushRegular" horiz-adv-x="608" >
<font-face units-per-em="2048" ascent="1638" descent="-410" />
<missing-glyph horiz-adv-x="405" />
<glyph unicode=" "  horiz-adv-x="405" />
<glyph unicode="&#x09;" horiz-adv-x="405" />
<glyph unicode="&#xa0;" horiz-adv-x="405" />
<glyph unicode="!" horiz-adv-x="530" d="M158 78q0 57 80 57q31 0 57.5 -19t26.5 -48q0 -25 -26 -44.5t-52 -19.5q-35 0 -60.5 22.5t-25.5 51.5zM276 279q25 141 191 389q166 250 225 250q25 0 49 -9q35 -10 35 -26q0 -7 -8 -15q-86 -89 -252 -307q-168 -223 -188 -274q-23 -47 -43 -47q-14 0 -9 39z" />
<glyph unicode="&#x22;" horiz-adv-x="421" d="M35 680l4 5q4 5 17.5 19.5t25.5 28.5q49 53 43 96q-2 16 -28.5 40t-26.5 36q0 61 59 62q31 0 58.5 -20.5t27.5 -49.5q0 -86 -74 -164q-66 -68 -98 -59q-8 2 -8 6zM244 680q0 4 45 55t43 94q-2 16 -29 40t-27 36q0 61 62 62q31 0 57.5 -20.5t26.5 -49.5q0 -86 -72 -164 q-66 -68 -98 -59q-8 2 -8 6z" />
<glyph unicode="#" horiz-adv-x="1619" d="M-18 477q-12 43 102 49l340 2q52 138 129 357l-201 -2q-178 -2 -190 45q-8 20 17.5 32.5t82.5 16.5q45 0 324 -4l94 266q31 84 49 90q8 2 12 -4t7 -18q2 -6 2 -33q-4 -121 -33 -201l-37 -100q319 -4 391 -4q59 158 113 270q37 83 55 86q20 4 21 -53q-6 -113 -39 -199 l-39 -102q207 4 307 8q104 4 104 -16q0 -14 -47 -31q-115 -45 -203 -45h-192l-135 -359l295 2q102 0 102 -22q0 -16 -45 -31q-111 -39 -203 -39l-184 -2l-72 -196q-57 -166 -108 -162q-23 4 -23 41q0 25 10 69q37 90 93 248l-404 -2l-71 -194q-57 -166 -107 -162 q-25 4 -25 41q0 29 13 69q43 98 100 246l-215 -2q-176 0 -190 45zM512 528h401q23 66 127 359l-393 -2z" />
<glyph unicode="$" horiz-adv-x="1099" d="M27 598q-27 68 8 131q37 63 94 64q12 0 12 -5q0 -6 -24 -22l-35 -25q-23 -23 -23 -63q0 -76 58 -135q53 -57 125 -78q117 176 272 387q-137 37 -137 137q0 74 92 148q141 111 352 118q199 248 223 248q20 0 35 -14q20 -20 -8 -55q-68 -77 -153 -185q170 -25 169 -133 q0 -76 -79 -106q-78 -31 -109 -11q-2 2 -2 9q0 9 31 12q27 0 57 8q47 23 47 70q0 96 -145 114q-109 -133 -246 -311q65 -9 190 -43q98 -40 99 -117q0 -70 -70 -145q-66 -72 -137 -104q-152 -70 -344 -70q-33 0 -86 4q-125 -189 -162 -281q-12 -35 -12 -59q0 -35 22 -45 q8 -6 -2 -16q-15 -18 -37 -19q-31 0 -30 51q0 70 39 179q20 53 112 200q-74 18 -119 53q-57 45 -77 109zM313 453q20 -2 64 -2q133 0 252 47q129 53 188 151q23 39 23 66q0 45 -66 73q-53 23 -184 48q-172 -229 -277 -383zM457 1012q0 -59 106 -92q94 125 225 294 q-176 -16 -270 -100q-61 -57 -61 -102z" />
<glyph unicode="%" horiz-adv-x="1435" d="M195 907q0 123 178 344q180 223 291 224q104 0 104 -111q0 -29 -10 -74q4 -8 84 2q207 25 479 152q8 4 10 4q23 0 39 -16q25 -23 -8 -62q-276 -317 -606 -760q-385 -518 -451 -690q-12 -37 -12 -65q0 -39 22 -52q9 -3 0 -18q-14 -20 -43 -21q-35 0 -34 60q0 76 45 199 q51 143 415 643q322 444 543 696q-101 -49 -246 -92q-150 -43 -247 -47q22 -68 -136 -258q-162 -199 -276 -199h-33q-53 0 -84 55q-25 40 -24 86zM291 891q2 -63 49 -64q88 0 225 162q133 158 133 228q-33 18 -82 94q-70 0 -200 -168q-129 -164 -125 -252zM604 -27 q0 123 178 344q180 223 291 224q104 0 105 -111q0 -29 -11 -74q0 -2 18.5 -7t18.5 -15q0 -27 -47 -45q22 -68 -135 -258q-162 -199 -277 -199h-32q-53 0 -84 55q-25 40 -25 86zM700 -43q2 -63 50 -63q88 0 225 161q133 158 133 228q-33 18 -82 94q-70 0 -201 -168 q-129 -164 -125 -252z" />
<glyph unicode="&#x26;" horiz-adv-x="1542" d="M27 379q0 74 45 139q77 120 258 227q141 86 276 129q-57 63 -57 166q0 53 24 88q68 96 205 154q135 59 281 70q131 8 197.5 -27t64.5 -108q-4 -59 -50 -103.5t-101.5 -44.5t-55.5 29q0 20 27 20q8 0 20 -4q37 -10 66 29q33 39 33 74q0 55 -64 79q-49 18 -129 15 q-139 -10 -250 -78q-101 -65 -153 -154q-31 -51 -31 -108q0 -53 24 -82q86 25 152 22q104 -2 104 -47q0 -12 -8 -20q-27 -45 -102 -45q-102 0 -174 53q-111 -33 -254 -137q-151 -111 -203 -215q-31 -66 -31 -121q0 -182 248 -203q49 303 295 455q39 25 87 44t112.5 34.5 t98.5 22.5t115 20l93 16q190 33 254 80q59 45 41 94q-2 12 6 14q9 3 18 -6q16 -23 17 -47q0 -41 -41 -88q-33 -33 -82 -55.5t-89 -31.5t-108.5 -22.5t-99.5 -21.5q39 -37 39 -111q0 -152 -172 -290q-188 -152 -459 -164q-29 -2 -82 -2q-2 -16 -2 -51q0 -143 96 -228 q94 -82 240 -82q51 0 88 34t37 77q0 14 -6 29q-10 23 14 22q23 0 23 -53q0 -55 -47.5 -97t-108.5 -42q-160 0 -266 88q-121 96 -121 252q0 35 2 53q-178 16 -270 90q-84 72 -84 170zM438 174q45 0 90 6q264 29 420 168q129 117 129 240q0 90 -78 90q-24 -1 -100 -19 q-396 -147 -461 -485zM682 864q51 -33 111 -33q51 0 59 25q2 10 -12 15.5t-47 5.5q-49 0 -111 -13z" />
<glyph unicode="'" horiz-adv-x="266" d="M150 559q0 8 57 80q59 76 53 117q-2 16 -28.5 39.5t-26.5 35.5q0 61 59 62q31 0 58.5 -19.5t27.5 -48.5q0 -88 -84 -190q-78 -92 -110 -84q-6 2 -6 8z" />
<glyph unicode="(" horiz-adv-x="768" d="M-10 422q0 164 84 348q121 264 444 496q361 259 742 290q41 -6 40 -24q0 -20 -51 -23q-358 -35 -663 -299q-223 -197 -357 -446q-123 -233 -123 -430q0 -154 79 -247t227 -105q47 -4 47 -23q0 -35 -68 -29q-164 16 -276 144q-125 137 -125 348z" />
<glyph unicode=")" horiz-adv-x="1333" d="M18 -47q0 20 52 22q358 35 663 299q227 197 359 445q123 233 122 430q0 156 -78.5 249t-228.5 105q-45 2 -45 23q0 35 66 28q164 -16 276 -143q125 -137 125 -346q0 -164 -84 -350q-121 -264 -444 -496q-360 -260 -740 -291q-43 6 -43 25z" />
<glyph unicode="*" horiz-adv-x="720" d="M82 715q-2 10 8 17t37 11l182 9q-45 68 -76 110q-37 43 -36 68q0 14 14 14t41 -24l104 -132l37 152q6 34 25 68q15 9 18 -25q6 -49 -22 -203l118 82q53 39 64 35q16 -6 -2 -33q-29 -39 -139 -119h161q39 0 46 -8q8 -9 -7 -18q-31 -20 -96 -25q-10 0 -27.5 -1t-43 -2 t-46.5 -1l95 -127q41 -53 38 -61q-6 -16 -32 2q-39 25 -150 145l-37 -129q-14 -37 -14 -43q-12 -31 -27 -31q-12 0 -16 25q-2 6 -2 27l29 155l-107 -80q-61 -43 -82 -28q-4 4 -4 10q0 14 25 39l135 98h-129q-76 0 -82 23z" />
<glyph unicode="+" horiz-adv-x="831" d="M39 481q0 20 17.5 34.5t33.5 14.5q33 0 98 2h191q2 6 20 70q62 199 80 293q12 2 18.5 -15.5t6.5 -56.5q0 -41 -31 -291h35q205 -2 303 5q16 -31 -127 -60q-76 -10 -227 -35q-27 -100 -66 -194q-47 -121 -72 -111q-18 4 -28 24.5t-4 39.5l63 233q-311 0 -311 47z" />
<glyph unicode="," horiz-adv-x="397" d="M166 -158q0 2 47 55.5t41 94.5q-2 16 -28.5 39.5t-26.5 36.5q0 61 59 61q31 0 58.5 -20.5t27.5 -49.5q0 -86 -72 -163q-66 -68 -98 -60q-8 2 -8 6z" />
<glyph unicode="-" d="M39 481q0 20 17.5 34.5t33.5 14.5q8 0 21 2h53q45 2 115 0q227 -3 305 5q16 -35 -160 -66q-88 -12 -229 -35q-29 -8 -91 2q-66 12 -65 43z" />
<glyph unicode="." horiz-adv-x="462" d="M180 70q0 59 78 59q31 0 58.5 -20.5t27.5 -49.5q0 -23 -25.5 -42t-52.5 -19q-35 0 -60.5 21.5t-25.5 50.5z" />
<glyph unicode="/" horiz-adv-x="1236" d="M55 -195q0 76 45 199q63 174 535 807q465 618 514 619q23 -1 39 -17q25 -23 -8 -61q-276 -317 -607 -760q-385 -518 -450 -690q-12 -37 -12 -66q0 -39 22 -51q9 -3 0 -18q-14 -20 -43 -21q-35 0 -35 59z" />
<glyph unicode="0" horiz-adv-x="1179" d="M68 229q0 213 159 476q98 163 283 319q175 151 356 233q-8 8 -8 17q0 33 117 22q59 20 158 21q154 0 153 -57q-4 -29 -41 -13q-68 25 -125 23q63 -20 117 -72q115 -109 115 -276q0 -156 -92 -324q-89 -169 -240 -301q-354 -315 -705 -315q-41 0 -77 6q-170 23 -170 241z M162 197q0 -156 100 -164q291 -25 662 301q319 281 319 610q0 156 -65 209q-101 78 -189 94q-190 -59 -401 -260q-156 -152 -258 -309q-168 -260 -168 -481z" />
<glyph unicode="1" horiz-adv-x="714" d="M-2 8q0 31 18 37q55 25 207 76q256 469 514 936q-113 -70 -286 -135q-31 -12 -31 20q0 16 18 27q138 52 387 245l13 21q20 39 92 39q59 0 59 -31q0 -6 -6 -16l-659 -1090q139 25 292 25q23 0 23 -23q0 -29 -31 -28q-137 0 -293 -50q-76 -27 -278 -106q-16 -6 -27.5 11.5 t-11.5 41.5z" />
<glyph unicode="2" horiz-adv-x="1327" d="M0 27q0 45 53 86q49 33 99 41q92 16 198 8q479 289 627 405q139 109 209 195q95 114 117 246q4 25 4 34q0 111 -140 111q-135 0 -338 -92q-184 -84 -294 -182q-8 -8 -19 -9q-20 0 -20 25q0 15 12 25q141 121 364 221q246 109 414 108q188 0 189 -145q0 -12 -5 -45 q-24 -143 -186 -307q-82 -86 -285 -246q-215 -169 -596 -369q89 -9 320 -86q219 -74 358 -74q78 0 150 31q90 37 90 109q0 82 -125 127q-16 6 -16 16q0 27 34 16q170 -49 170 -163q0 -96 -114 -162q-94 -51 -201 -51q-125 0 -297 59l-285 102q-96 29 -153 29 q-74 -35 -242 -94q-25 -6 -43 -6q-49 0 -49 37z" />
<glyph unicode="3" horiz-adv-x="1470" d="M66 225q0 63 38 135q51 92 203 158q129 53 223 53q25 0 25 -16q0 -20 -29 -20q-68 0 -168 -62q-115 -72 -135 -143q-10 -41 -10 -70q0 -178 244 -221q238 -43 493 74q287 133 387 383q14 35 15 69q0 82 -92 121q-80 35 -197 35q-121 0 -201 -31q-18 -8 -39 -8 q-37 0 -37 35q0 25 17.5 43t42.5 18q176 0 330 60q197 78 221 219q2 10 2 26q0 88 -117 88q-102 0 -250 -55q-132 -49 -227 -110q-10 -6 -14 -7q-14 0 -15 27q0 61 39 70q47 14 150 110q12 12 22 8t10 -14q0 -12 -12 -24q-6 -4 -16 -17q219 94 366 94q100 0 148.5 -46 t44.5 -140q-11 -178 -367 -289q309 -33 309 -217q0 -31 -8 -57q-61 -243 -362 -393q-264 -131 -578 -131q-201 0 -323 61q-133 66 -133 184z" />
<glyph unicode="4" horiz-adv-x="1163" d="M27 387q0 53 45 68q31 12 114 28q111 59 337.5 221t287.5 203q389 246 463 353l4 6l18 28q10 14 35 15q70 0 70 -39q0 -4 -4 -8l-361 -519q-119 -176 -205 -325q143 -49 242 -49q57 0 105 34q59 49 59 119q0 22 -6 43q-6 31 16 31q18 0 29 -21q39 -70 39 -124 q0 -139 -250 -140q-106 0 -266 49q-35 -66 -60.5 -143.5t-37 -171.5t21.5 -156q4 -12 4 -18q0 -37 -33 -37q-23 0 -32 12q-80 174 63 535q-158 45 -258 45q-135 0 -383 -102q-25 -8 -41 12t-16 51zM332 504q84 10 141 10q109 0 281 -65q90 197 338 550l47 70 q-74 -45 -191 -126t-313.5 -222t-302.5 -217z" />
<glyph unicode="5" horiz-adv-x="1355" d="M-68 188q0 104 134 232q20 20 38 20q14 0 15 -14q0 -16 -21 -37q-74 -70 -73 -143q0 -86 94 -143.5t221 -57.5q244 0 494 174q260 180 307 410q4 29 4 41q0 102 -127 155q-95 34 -203 31q-135 -6 -246 -59l-215 -105q-4 -2 -12 -2q-18 0 -18 25q0 31 26 43l242 305 q18 23 92 22q41 0 41 -12q0 -4 -4 -8l-238 -258q261 104 375 104q438 0 438 -217q0 -34 -12 -73q-84 -264 -379 -451q-279 -174 -590 -186q-170 -6 -276.5 50t-106.5 154zM609 1149q-3 20 1 49q3 40 19 49q47 35 104 41q33 4 113 4q94 0 284.5 -53t284.5 -53q40 0 92 24 q68 35 68 84q0 31 24.5 31t24.5 -53q0 -71 -92 -111q-61 -26 -129 -26q-109 0 -281 26.5t-282 26.5q-133 0 -209 -58q-17 -13 -22 19z" />
<glyph unicode="6" horiz-adv-x="1253" d="M102 223q10 174 170 375q168 211 426 350q317 172 519 240q-33 8 -37 8q-10 6 -9 14q4 8 23.5 15.5t32.5 5.5q4 0 22.5 1t62.5 4t87 5q55 4 91 -18.5t36 -53.5q0 -20 -23 -24q-316 -62 -743 -271q-197 -94 -373 -276q-213 -217 -213 -397q0 -186 256 -187q141 0 361 66 q100 31 192 104q113 88 113 178q0 72 -95 72q-145 0 -296 -86q-174 -100 -201 -250q-6 -39 -35 -39q-25 0 -18 35q34 187 221 307q164 102 340 105q205 2 205 -139q0 -109 -127 -211q-101 -77 -228 -117q-256 -78 -426 -78q-174 0 -260 74q-80 68 -74 188z" />
<glyph unicode="7" horiz-adv-x="1011" d="M223 1022l2 12l4 13l37 73q25 51 21 74q-2 20 6 47q6 14 14 12q16 -12 17 -63q143 129 385 129q104 0 266 -39q176 -41 264 -53l104 78q23 16 60 -27q41 -41 16 -57q-491 -357 -829 -691q-100 -100 -182 -233q-102 -164 -103 -268q0 -14 4 -35q3 -25 -24 -25 q-18 0 -26.5 13.5t-9.5 23.5t-1 35q0 217 272 522q280 316 664 621q-328 45 -432 45q-178 0 -267 -37q-117 -51 -161 -186q-16 -41 -56 -41q-25 0 -39 16t-6 41z" />
<glyph unicode="8" horiz-adv-x="1245" d="M2 147q0 123 125 256q233 254 551 418q-127 78 -127 150q0 23 8 41q45 123 205 205q144 74 301 73q111 0 182 -41q55 -34 56 -86q0 -45 -37 -96l172 55q16 4 25 -5t7 -25q-6 -35 -59 -48q-242 -53 -545 -194q123 -51 189 -92q150 -94 149 -217q0 -131 -168 -275 q-147 -123 -379 -219q-209 -84 -399 -84q-156 0 -213 68q-43 49 -43 116zM117 113q14 -111 164 -111q133 0 317 76q489 201 489 409q0 123 -176 213l-176 91q-180 -102 -373 -277q-266 -246 -245 -401zM682 1001q8 -72 125 -124q145 70 391 167q10 20 39 86q14 51 -35 70 q-80 29 -164 29q-145 0 -258 -70q-110 -68 -98 -158z" />
<glyph unicode="9" horiz-adv-x="901" d="M154 745q6 172 219 308q176 111 446 178q233 57 404 51q15 0 12 -18q-2 -20 -20.5 -46t-34.5 -24q-292 22 -602 -117q-319 -141 -330 -313q-2 -41 20.5 -56.5t71.5 -9.5q135 14 424 199q203 129 385 277q8 8 37 8q86 0 86 -43q0 -15 -19 -31q-106 -90 -225 -199 q-715 -659 -696 -1118q3 -58 30 -67q31 -12 11 -27q-12 -12 -43 -8q-82 10 -84 110q-8 219 223 578q197 303 461 561q-428 -297 -656 -297q-63 0 -92.5 25.5t-27.5 78.5z" />
<glyph unicode=":" horiz-adv-x="462" d="M180 70q0 59 78 59q31 0 58.5 -20.5t27.5 -49.5q0 -23 -25.5 -42t-52.5 -19q-35 0 -60.5 21.5t-25.5 50.5zM262 467q0 59 78 59q31 0 58.5 -20t27.5 -49q0 -23 -25.5 -42.5t-52.5 -19.5q-35 0 -60.5 21.5t-25.5 50.5z" />
<glyph unicode=";" horiz-adv-x="462" d="M166 -158q0 2 47 55.5t41 94.5q-2 16 -28.5 39.5t-26.5 36.5q0 61 59 61q31 0 58.5 -20.5t27.5 -49.5q0 -86 -72 -163q-66 -68 -98 -60q-8 2 -8 6zM262 467q0 59 78 59q31 0 58.5 -20t27.5 -49q0 -23 -25.5 -42.5t-52.5 -19.5q-35 0 -60.5 21.5t-25.5 50.5z" />
<glyph unicode="&#x3c;" horiz-adv-x="651" d="M174 524q0 29 107 174l135 185q16 23 39 22q14 0 14 -12q0 -31 -203 -313q199 -254 199 -275q0 -27 -21 -26l-16 8q-70 98 -248 225q-6 3 -6 12z" />
<glyph unicode="=" horiz-adv-x="831" d="M39 481q0 20 17.5 34.5t33.5 14.5h2h10h16q9 0 22.5 1t29.5 1h164q104 2 174 0q227 -3 303 5q6 -12 -10.5 -22.5t-53 -22t-94.5 -21.5q-88 -12 -229 -35q-43 -10 -205 2q-180 12 -180 43zM106 727q0 23 17.5 36t34.5 13h2h9h17q9 0 23 1t31 1q59 2 159 2q129 0 176 -2 q195 -2 304 4q10 -21 -56 -40q-38 -11 -104 -23l-227 -37q-33 -8 -205 2q-180 12 -181 43z" />
<glyph unicode="&#x3e;" horiz-adv-x="651" d="M174 276q0 31 203 314q-201 256 -201 274q0 27 23 27l16 -8q74 -98 248 -226q6 -3 6 -12q0 -29 -107 -174q-90 -123 -137 -184q-16 -23 -39 -23q-12 0 -12 12z" />
<glyph unicode="?" horiz-adv-x="821" d="M168 711q12 137 145 221q111 68 240 67q340 0 340 -194q0 -125 -111 -211q-25 -18 -245 -148q-143 -82 -197 -182q-18 -33 -31 -33q-14 0 -14 27q0 8 4 21q53 109 180 190q184 119 226 154q88 80 88 147q0 63 -75 104t-181 41q-121 0 -207 -49q-100 -57 -113 -159 q-4 -27 21.5 -50.5t62.5 -23.5q59 0 119 61q6 6 10 6q8 0 8 -12q0 -14 -10 -24q-63 -70 -145 -70q-51 0 -85 34t-30 83zM178 61q0 57 78 58q31 0 58.5 -19.5t27.5 -48.5q0 -23 -26.5 -42t-53.5 -19q-35 0 -59.5 21.5t-24.5 49.5z" />
<glyph unicode="@" horiz-adv-x="1724" d="M29 428q0 147 84 332q106 231 403 444q328 233 668 260q29 2 82 2q203 0 313 -80q102 -74 102 -194q1 -71 -32 -139q-23 -43 -21 -45q14 -49 14 -109q0 -256 -262 -487q-401 -358 -903 -359q-55 0 -86 2q-163 9 -258 105q-104 102 -104 268zM139 381q0 -268 273 -283 q436 -27 825 320q250 225 281 426q-4 4 -9 4l-249 -277q-188 -182 -310 -182q-31 0 -53 8q-90 35 -90 135q0 16 4 54q-4 4 -8 4q-225 -215 -293 -215q-51 0 -96 33q-51 33 -58 79q-20 160 199 373t391 213q78 0 94 -59l4 -13v-4l3 -4q4 -4 6 -4q4 0 14 3t14 3 q23 0 42.5 -18.5t21.5 -32.5q0 -14 -39 -72q-43 -63 -133 -190q-88 -143 -80 -199q9 -49 49 -49q72 0 252 164q176 162 322 338v4q-14 111 -109 195q-83 74 -197 104q-55 16 -139 16q-109 4 -139 7l-17 4q-2 6 3 8q96 33 186 33q86 0 194 -27q209 -49 297 -199q7 -8 9 0 q16 49 16 88q0 70 -45 134q-86 123 -309 122q-246 0 -512.5 -155.5t-434.5 -386.5q-180 -250 -180 -502zM442 467q6 -47 50 -47q102 0 284 209q51 57 228 303l26 37q2 2 0 4q-15 25 -49 24q-129 0 -340 -196q-219 -205 -199 -334z" />
<glyph unicode="A" horiz-adv-x="2088" d="M-2 86q0 176 111 373q147 262 405 450q254 183 457 183h1q202 0 202 -150q0 -100 -61.5 -223t-125.5 -156q-6 -2 -14 -2q-6 0 -6 4l67 111q70 109 70 201q0 72 -36 122t-114 50q-160 0 -372 -170q-231 -186 -359 -471q-104 -237 -104 -381q0 -219 223 -220q213 0 578 275 q162 121 526 457q-72 -4 -148 -17q-47 -10 -73 -10q-20 2 -28.5 7t-6.5 13q8 76 78 76q135 -16 227 -16q176 162 526 530q236 248 287 248q23 0 23 -41q-1 -28 -17 -98q-20 -78 -43 -94q-47 -33 -100 -105q-29 -41 -90 -168q-90 -182 -144 -278q4 0 27 1t71 2t101 1 q74 0 74 -10q0 -2 -4 -7q-35 -23 -295 -41q-190 -373 -191 -507q0 -94 60 -95q23 0 57 29q33 27 41 27q6 0 6 -11q-10 -37 -62.5 -61.5t-109.5 -24.5q-14 0 -35 5q-49 18 -49 118q0 207 158 527q-8 0 -135 -4q-63 -2 -111 -3q-274 -268 -551 -471q-414 -300 -647 -300 q-15 0 -29 1q-315 27 -315 324zM1577 594h121q43 -2 106 -2q59 116 297 493z" />
<glyph unicode="B" horiz-adv-x="1677" d="M37 82q0 123 94 287q86 152 154 180q31 10 47 10q59 0 90 -98l61 -197q59 63 162 203l182 246q336 436 441 477q37 14 73 14q41 0 67 -16.5t26 -40.5q0 -37 -60 -43q-61 -35 -239 -207q-168 -166 -201 -211q-230 -319 -424 -491q125 -248 375 -248q152 0 299 92 q152 98 225 237q33 59 33 123q0 83 -62 154q-55 63 -143 94q-41 6 -125 17q-96 12 -96 38q0 10 8 19q25 29 63 29q10 0 24.5 -3.5t28 -8.5t26 -9t20.5 -7l8 -3q45 -4 78 -4q135 0 246 43q141 55 180 166q25 71 24 129q0 141 -137 211q-120 61 -325 61q-326 0 -584 -123 q-132 -61 -246 -178q-123 -127 -121 -213q0 -57 31 -96q12 -16 43 -41q9 -6 -12 -6q-127 29 -127 170t143 266q106 92 240 149q276 119 628 119q252 0 402 -74q174 -82 174 -247q0 -65 -27 -133q-43 -123 -223 -187q-135 -47 -291 -49q121 -6 201 -86q86 -86 86 -209 q0 -74 -33 -139q-70 -147 -272 -250q-190 -94 -404 -94q-324 0 -440 221q-211 -176 -301 -176q-16 0 -29 6q-61 33 -61 127zM106 106q0 -55 27 -100q6 -10 21 -10q66 0 252 186l-7 8q-82 272 -131 273q-2 0 -10 -4q-152 -219 -152 -353z" />
<glyph unicode="C" horiz-adv-x="1486" d="M80 444q55 262 291 510q170 178 409 281q227 96 437 96q111 0 192 -26q223 -70 223 -281q0 -129 -76 -223q-188 -231 -448 -232q-123 0 -207 56.5t-84 142.5q0 109 141 217q25 18 39 19q10 0 11 -9q0 -20 -33 -32q-115 -92 -115 -187q0 -68 61.5 -114t153.5 -46 q201 0 379 193q92 101 92 227q0 135 -98 199q-82 57 -221 57q-201 0 -404 -100q-250 -121 -440 -363q-213 -268 -213 -503q0 -187 135 -295q118 -94 306 -94q28 0 57 2q188 12 366 102q158 82 273 209q33 37 51 37q12 0 12 -19q0 -25 -22 -47q-109 -115 -295 -213 q-223 -117 -426 -137q-61 -4 -88 -4q-266 0 -392 168q-85 111 -85 263q0 69 18 146z" />
<glyph unicode="D" horiz-adv-x="1886" d="M31 51q0 98 75 283q89 209 166 209q39 0 60 -123q35 -184 63 -254q139 147 404 491q332 436 440 478q37 14 74 14q41 0 66.5 -16.5t25.5 -40.5q0 -35 -59 -41q-72 -39 -222 -189q-150 -145 -239 -272q-219 -305 -439 -488l-12 -10q115 -170 361 -170q27 0 79 4 q569 53 807 494q96 176 97 336q0 184 -125 321q-100 113 -223 142q-111 24 -227 24h-9q-315 0 -581.5 -145.5t-280.5 -325.5q-1 -9 -1 -18q0 -52 31 -88q25 -29 35 -33h-12q-53 10 -94 53q-45 53 -45 112v5q10 207 260 350q254 145 600 145q160 0 309 -32q186 -41 324 -181 q157 -163 157 -367q0 -157 -90 -321q-156 -283 -465 -413q-215 -90 -467 -103q-27 -1 -53 -1q-301 0 -438 171q-180 -139 -264 -139q-45 0 -70 49q-18 39 -18 90zM104 59q0 -65 25 -110q88 39 213 162q-59 98 -78 165q-12 45 -18 138q-141 -203 -142 -355zM397 633 q2 -2 3 -2t1 4q-2 -2 -4 -2z" />
<glyph unicode="E" horiz-adv-x="1415" d="M6 158q0 84 53 168q188 299 643 444q-67 77 -67 173q0 81 43 140q84 115 254 191q166 72 340 84q30 2 58 2q118 0 182 -35q77 -41 77 -123v-8q-4 -72 -59 -123q-57 -53 -120.5 -53t-63.5 31q0 18 26 18q6 0 21.5 -3t19.5 -3q41 0 75 44t34 91q0 70 -80 102 q-52 20 -124 20q-17 0 -36 -1q-175 -9 -344 -123q-197 -129 -197 -291q0 -59 41 -110q131 41 250 41h21q180 -2 180 -76q0 -15 -12 -37q-49 -76 -179 -76q-84 0 -176 31q-83 28 -129 61q-190 -55 -338.5 -169.5t-222.5 -260.5q-39 -78 -39 -151q0 -115 90 -183 q99 -75 280 -75h5q51 0 106 6q326 35 519 209q161 142 161 299q0 127 -120 127q-145 0 -334 -156q-47 -39 -80 -98.5t-33 -108.5q0 -66 57 -80q20 -8 21 -20q0 -20 -41 -17q-98 2 -98 121q0 135 129 246q176 152 372 152q147 0 187 -93q16 -43 16 -86q0 -190 -211 -358 q-229 -186 -563 -203q-38 -2 -74 -2q-242 0 -381 88q-139 90 -139 234zM817 760q41 -33 84 -47q61 -23 123 -23q111 1 111 64q0 28 -104 28h-7q-94 0 -207 -22z" />
<glyph unicode="F" horiz-adv-x="1294" d="M-25 522q0 242 295 488q213 174 459 266q233 86 436 86q152 0 239 -51t87 -146q0 -88 -80 -202q-47 -76 -330 -449q4 0 17.5 -1t42 -2t59.5 -1q67 -3 91 -3q12 0 14 1q49 4 49 -14q0 -29 -80 -29q-29 0 -76 2q-41 2 -98 2q-53 -4 -64 -10q-86 -106 -215 -287 q-162 -223 -162 -262q0 -16 37 8q23 0 23 -6q0 -10 -45 -31l-58 -31q-38 -32 -93 -32h-3q-20 0 -30.5 6t-8.5 18q2 49 146 250q143 199 297 379q-147 -27 -226 -27q-8 2 -8 11q0 14 24.5 34.5t41.5 20.5q39 0 100 2h105q70 94 309 434q98 141 98 234q0 143 -213 143 q-166 0 -387 -90q-227 -94 -416 -254q-133 -111 -211 -240t-78 -229q0 -161 193 -161q17 0 35 1q125 10 244 150q103 123 103 213q0 10 -1 20q53 -10 53 -63q0 -89 -110 -203q-119 -123 -261 -154q-55 -12 -104 -12q-113 0 -176.5 59.5t-63.5 161.5z" />
<glyph unicode="G" horiz-adv-x="1695" d="M-31 293q0 313 379 637q190 163 461 270q270 111 496 111q182 0 290 -80q84 -66 84 -148q0 -117 -145 -225q-143 -106 -285 -106q-186 0 -190 200v18q0 84 35 85q28 0 28 -56q0 -14 -2 -32t-2 -35q0 -133 144 -133q119 0 237 80q123 84 123 174q0 77 -98 135 q-66 39 -205 39q-207 0 -440 -90q-276 -106 -500 -324q-293 -287 -293 -526q0 -141 107.5 -227.5t281.5 -86.5q41 0 88 7q207 25 473 176q266 150 400 317l59 88q-37 0 -311 -22q-262 -20 -316 -33q-25 -6 -49 -6q-68 0 -67 32q0 51 180 91q127 28 506 28h26h22 q322 0 437 -28q18 -4 19 -11q0 -23 -142 -32l-100 -9q-58 -6 -80 -6q-209 -273 -541 -848q-17 -32 -36 -32h-1q-16 0 -16 26q0 72 115 277l143 268q-131 -113 -323 -203q-215 -104 -422 -127q-51 -6 -103 -6q-219 0 -343 101.5t-124 271.5z" />
<glyph unicode="H" horiz-adv-x="1947" d="M39 655q0 53 12 109q61 276 352 481q298 209 665 209h30q115 -2 205 -55q108 -65 108 -183q0 -100 -76 -221l-370 -569q66 -2 262 -23q141 -14 205 -14q106 0 135 2l78 129q199 334 446 610q274 303 469 373q7 2 12 2q15 0 15 -16q-1 -6 -7 -10q-131 -74 -366 -349 q-254 -293 -432 -591l-80 -136q94 12 135 48q8 6 14 -7q6 -14 -2 -20q-61 -47 -174 -68q-143 -266 -143 -374q0 -70 59 -70q41 0 95.5 27.5t87.5 62.5q4 4 6 4q6 0 6 -12q-4 -14 -10 -23q-34 -34 -99 -67q-76 -39 -129 -39q-33 0 -53 14q-66 43 -65 137q0 119 108 324 q-76 -6 -152 -6q-55 0 -208 6l-263 8q-144 -230 -233 -418q-27 -55 -72 -55q-31 0 -30 31q0 18 12 43q68 145 223 401q-168 0 -223 -14q-92 -23 -137 -92q-16 -23 -27 -25q-12 -2 -12 10q0 10 8 19q78 104 158 145q72 38 236 38q23 0 48 -1q126 190 351 565q84 158 83 256 q0 158 -192 160h-22q-261 0 -488 -137q-205 -125 -334 -326q-121 -188 -121 -344q0 -190 179 -190q12 0 49 4q106 14 200 131q92 114 93 227q0 63 -33 105q-4 4 -4 10q0 14 16 14q9 0 12 -6q41 -53 41 -127q0 -125 -102 -256q-102 -129 -215 -143q-34 -6 -68 -6 q-131 0 -202 84q-70 76 -70 204z" />
<glyph unicode="I" horiz-adv-x="1179" d="M43 250q2 299 166 487q139 164 319 164q47 0 97 -16q121 -47 120 -191q0 -162 -122 -323q-127 -170 -258 -170q-74 0 -109 41q-31 35 -37 93q-1 13 -1 26q0 43 15 83q23 59 48 60q18 0 18 -19q0 -10 -18 -53q-18 -39 -19 -72q0 -31 34 -58.5t71 -27.5q120 0 227 154 q100 143 100 285q0 109 -78 143q-27 10 -55 10q-145 0 -291 -200q-142 -202 -141 -441v-32q2 -109 55 -187q59 -86 154 -88h12q136 0 306 176q178 184 399 559q-225 68 -226 267q0 264 269 421q171 99 333 99h9q123 -4 213 -41q141 -55 141 -168q0 -25 -11 -47.5t-24 -22.5 l-3 3q-3 3 -9 7.5t-14.5 7.5t-18.5 6t-18 3q-174 0 -477 -518q17 -2 34 -2q70 0 131 34q78 47 78 109q0 12 -7 32.5t-7 22.5q0 16 16 17q6 0 17 -6q47 -35 47 -86q0 -63 -72 -117q-76 -55 -188 -56q-35 0 -70 7q-141 -261 -344 -480q-269 -286 -490 -286h-2q-319 0 -319 375 v16zM938 880.5q0 -147.5 152 -175.5q113 184 274 350q194 200 312 200h1q31 0 54 -14q-2 57 -80 100q-61 37 -131 41h-22q-125 0 -265 -61q-133 -59 -214 -176t-81 -264.5z" />
<glyph unicode="J" horiz-adv-x="1683" d="M80 59q0 102 45 187q108 209 313 325q152 88 281 88h16q131 -6 206 -70.5t75 -166.5q0 -25 -6 -53q-16 -82 -76 -148q-51 -57 -82 -57q-8 0 -8 8q0 6 6 18q74 108 74 209q0 86 -52.5 144.5t-138.5 64.5q-9 1 -19 1q-105 0 -229 -83q-154 -101 -252 -301 q-51 -100 -51 -194q0 -121 80 -189q78 -66 213 -66q16 0 33 1q508 29 1057 913q340 545 348 668l-121 6h-8q-96 0 -234 -47q-164 -59 -209 -137q-18 -31 -18 -60q0 -45 39 -90t39 -53q0 -10 -25 -14q-9 -1 -17 -1q-43 0 -81 37q-45 45 -45 111q0 55 37 104q78 106 260 152 q131 33 263 33h15q18 0 101 -6q-4 27 21.5 50t58.5 23q59 0 59 -83v-5q221 -38 233 -118q3 -18 3 -32q0 -40 -23 -40q-25 0 -16 49q-51 76 -203 106q-37 -166 -385 -720q-231 -365 -539 -611q-351 -278 -661 -278h-2q-190 0 -289 102q-86 90 -86 223z" />
<glyph unicode="K" horiz-adv-x="1916" d="M45 180q0 84 33 156q104 231 315 319q117 51 244 52q104 0 143 -76q14 -27 15 -60q0 -27 -8.5 -35t-22.5 15q-49 90 -105 100q-37 4 -53 4q-160 0 -299 -133q-104 -101 -147 -209q-33 -84 -33 -168q0 -221 250 -249q8 -1 16 -1q91 0 232 80q229 131 489 451 q-47 43 -47 123q0 88 59 160q65 77 171 77h3q31 0 58 -6q102 172 205 385q90 186 90 217q0 4 -2 4q-1 1 -3 1q-19 0 -141 -60q-139 -70 -180 -96q-70 -47 -139 -115q-90 -90 -90 -139q0 -23 20 -37q43 -31 127 -32q10 -4 10 -7q1 -11 -65 -21q-47 -8 -80 -7q-12 0 -23 1 q-51 12 -51 60q0 72 88 172t193 158q303 163 386 163h1q20 0 35 -8q8 -6 8 -22q0 -125 -344 -715q14 -55 45 -129l610 465q350 266 474 341q273 164 538 165q76 0 139 -25q39 -14 39 -57q0 -35 -20 -35q-12 0 -21 12q-18 20 -78 21q-70 0 -215 -33q-229 -51 -520 -229 q-181 -114 -491 -351q-301 -229 -437 -317q104 -219 267 -408q166 -190 309 -256q78 -36 142 -36h3q98 0 99 75q0 14 -2 21q-4 23 6 43t24 20q27 0 35 -63q2 -11 2 -21q0 -66 -67 -108q-66 -41 -168 -41q-80 0 -142 28q-162 80 -329 285q-162 197 -250 418 q-113 -66 -187 -72q-68 -88 -148.5 -172t-189 -175t-235.5 -147.5t-244 -56.5q-166 0 -256 83t-90 253zM1157 578q0 -39 23 -68l14 20q96 140 106 156q-25 10 -43 10q-41 0 -70.5 -36.5t-29.5 -81.5zM1270 475q20 0 26 2q27 4 82 33q-16 41 -26 82q-41 -59 -82 -117z" />
<glyph unicode="L" horiz-adv-x="1347" d="M6 59q0 129 98 303q92 163 148 173q37 0 84 -84l129 -250q108 144 227 313q-168 76 -168 219q0 47 21 94q23 57 76 97.5t106 40.5q68 0 98 -64q6 -12 -2 -17q-2 -1 -4 1q-41 41 -88 41h-3q-58 0 -106 -66q-42 -60 -43 -112q0 -7 1 -15q0 -106 147 -182q25 35 79 116 t85 126q408 598 678 598q190 -1 190 -179q0 -162 -157 -381q-123 -172 -336 -280q-195 -100 -367 -100q-63 0 -106 14q-86 -111 -277 -346q72 -102 259.5 -192.5t322.5 -90.5t200 37q90 47 91 135q0 23 -3 33q-6 31 11 31q18 0 31.5 -30t13.5 -52q0 -72 -76 -135 q-96 -78 -250 -78q-178 0 -356 77.5t-293 211.5q-164 -164 -311 -164q-45 0 -78 16q-72 41 -72 141zM86 88q0 -131 74 -131q53 0 131 57q72 53 123 119q-49 68 -133 232q-23 47 -41.5 69.5t-30.5 18.5q-37 -6 -80 -131q-43 -126 -43 -234zM825 510q27 -6 60 -6q143 0 319 94 q193 102 299 252q186 260 187 395q0 82 -72 105q-18 6 -41 6q-102 0 -254 -172q-104 -121 -305 -414q-80 -115 -193 -260z" />
<glyph unicode="M" horiz-adv-x="2326" d="M33 475q0 324 422 662q109 86 284 141q178 55 334 55q168 0 234 -63q51 -49 51 -144q0 -144 -117 -387q-37 -77 -166 -276l158 201q115 150 397 426q61 59 136 99t128 40q74 0 74 -78q0 -68 -55 -184q-74 -157 -184 -363q-20 -37 -35 -74.5t-21 -60.5t-8 -25 q6 10 129 152q135 152 387 371l328 270q39 33 69.5 33t47.5 -43q4 -10 22 -78q1 -3 1 -6q0 -38 -99 -139q-256 -262 -443 -586q-170 -299 -170 -432q0 -35 12.5 -48.5t39.5 -9.5q27 6 110 41q86 39 113 45q10 -4 10 -10q0 -31 -108 -86t-179 -55q-37 0 -49 18 q-37 52 -37 129q0 176 189 506q121 207 372 557q-197 -160 -499 -457q-369 -362 -473 -548q-53 -96 -129 -97q-35 0 -35 25q0 8 6 16q78 123 221 365q221 385 318 612q34 84 34 123q0 35 -22 35q-33 0 -96 -55q-227 -190 -510 -531q-229 -274 -359 -477q-49 -76 -49 -109 l19 -22q0 -3 -37 -31q-33 -16 -74 -16t-59.5 9t-12.5 30q29 92 191 334q211 313 274 428q137 248 137 395q0 61 -20 104q-41 84 -195 84q-240 0 -495 -207q-205 -166 -320 -360q-102 -176 -102 -322q0 -209 184 -213h16q236 0 365 170q49 68 49 127q0 35 -20 47q-2 2 -2 7 q0 8 12 8q53 0 53 -70q0 -43 -37 -108q-47 -82 -141 -140q-117 -73 -258 -73h-4q-139 0 -223 88t-84 231z" />
<glyph unicode="N" horiz-adv-x="1894" d="M4 391q0 319 438 672q111 88 287 147q178 59 324 60q143 0 209 -60q53 -49 53 -145q0 -145 -119 -385q-49 -102 -164 -277q63 80 207 203q510 428 877 563q18 8 41 9q78 0 98 -88q1 -3 1 -6q0 -38 -99 -140q-256 -262 -443 -586q-170 -299 -170 -434q0 -33 12.5 -46 t38.5 -9q27 6 111 41q86 39 113 45q10 -4 10 -10q0 -31 -109 -86q-108 -55 -178 -56q-34 0 -49 19q-37 52 -37 129q0 176 189 506q121 207 372 557q-272 -25 -704 -430q-344 -326 -490 -559q-49 -78 -49 -109l19 -22q0 -4 -39 -31q-29 -16 -72 -17q-75 0 -75 30q0 4 1 9 q28 89 191 332q211 313 274 428q139 250 139 395q0 57 -22 107q-35 74 -168 74q-244 0 -518 -224q-209 -172 -322 -356q-102 -174 -102 -311q0 -197 182 -201h17q242 0 366 170q49 68 49 127q0 35 -22 47q-2 2 -2 6q0 8 12 8q53 0 53 -69q0 -43 -35 -109q-47 -82 -141 -139 q-121 -74 -262 -74q-133 0 -213 80t-80 215z" />
<glyph unicode="O" horiz-adv-x="1605" d="M49 256q0 147 84 334q106 236 402 446q326 233 669 262q53 4 82 5q205 0 313 -82q104 -77 105 -197q0 -65 -35 -139l-22 -43q16 -55 16 -113q0 -256 -262 -489q-403 -360 -903 -361q-55 0 -86 2q-164 8 -263.5 107.5t-99.5 267.5zM160 207q0 -270 272 -285q29 -2 58 -2 q402 0 767 326q262 233 283 444q-106 -117 -369 -278l-16 -4q-3 0 -3 2q0 9 56 55l115 94q147 129 215 211q-15 114 -111 197q-82 72 -196 106q-57 14 -189 19q-108 4 -108 10q0 2 4 6q95 31 184 31q84 0 197 -27q215 -52 301 -209q20 49 20 101q0 70 -45 133 q-88 123 -311 123q-309 0 -594 -199q-264 -184 -418 -475q-113 -211 -112 -379z" />
<glyph unicode="P" horiz-adv-x="2164" d="M88 70q0 178 137 327q150 166 361 181q22 2 42 1q100 -1 160 -41q74 -50 74 -141q0 -61 -80 -159q-60 -74 -75 -74q-5 0 -5 8t7 16q65 95 65 178q0 81 -52 127q-48 42 -123 42h-13q-166 -8 -299 -166q-123 -147 -123 -308q0 -102 61 -161q68 -68 203 -68q53 0 100 8 q193 31 332 162q104 98 211 287l178 321q131 211 305 627h-36q-276 0 -537 -57q-297 -63 -440 -176q-61 -45 -62 -95q0 -43 48 -70.5t122 -27.5q57 0 137 20q115 31 164 74q20 16 29 17q16 0 6 -17q-74 -86 -223 -129q-89 -26 -168 -26h-6q-98 0 -155.5 39.5t-57.5 103.5 q0 74 74 143q139 135 497 201q253 45 584 45h55q45 39 86 39q33 0 33 -29q0 -6 -2 -14q317 -23 514 -107q233 -98 233 -256q0 -104 -100 -225q-108 -129 -326 -209q-204 -75 -420 -75h-6q-180 0 -297 51q-258 -379 -335 -457q-190 -190 -445 -217q-61 -4 -84 -4 q-174 0 -266 86q-82 76 -82 205zM1323 492q20 -10 70 -23q82 -14 127 -14q156 0 333 57q227 72 363 195q137 125 137 229q0 129 -209 211q-182 72 -456 86l-66 -205q-72 -180 -254 -467z" />
<glyph unicode="Q" horiz-adv-x="1632" d="M49 256q0 147 84 334q106 236 402 446q326 233 669 262q53 4 82 5q205 0 313 -82q104 -77 105 -197q0 -65 -35 -139l-22 -43q16 -55 16 -113q0 -256 -262 -489q-233 -209 -494 -295q416 -299 561 -299q33 0 59.5 17.5t26.5 43.5q0 20 -14 41q-6 14 -6 23q0 28 35 -11 q37 -39 37 -82t-41 -71.5t-107 -28.5q-213 0 -678 330q-127 -30 -275 -30q-45 0 -93 3q-92 6 -170 43q-28 -92 -43 -92q-20 0 -23 57v20q0 29 4 52q-131 100 -131 295zM205 35q23 55 55 100q51 74 137 74q77 0 191 -62q57 -33 219 -135l35 -22q219 82 415 256 q260 229 283 444q-106 -117 -369 -278l-16 -4q-3 0 -3 2q0 9 56 55l115 94q147 129 215 211q-15 114 -111 197q-82 72 -196 106q-57 14 -189 19q-108 4 -108 10q0 2 4 6q95 31 184 31q84 0 197 -27q215 -52 301 -209q20 49 20 101q0 70 -45 133q-88 123 -311 123 q-309 0 -594 -199q-264 -184 -418 -475q-112 -209 -112 -376q0 -109 45 -175zM258 -20q70 -55 174 -58q20 -1 41 -1q119 0 244 30q-236 143 -334 143q-74 0 -104 -65z" />
<glyph unicode="R" horiz-adv-x="1540" d="M-86 -20q0 65 43 147q39 78 90 127q68 68 113 68q8 0 8 -5q0 -10 -31 -34q-72 -57 -119 -132t-47 -137q0 -108 144 -108h18q264 10 733 639q27 35 45 49l-32 12q-27 -10 -43 -10q-43 0 -43 35q0 47 63 61q7 2 15 2q35 0 85 -37q180 201 185 205q150 154 205 154 q49 0 49 -45q0 -20 -9.5 -39t-21.5 -19q-12 -3 -12 13q0 9 12 24q2 20 -8 27q-4 3 -10 3q-66 0 -318 -349q61 -4 102 -4q475 0 594 245q25 52 25 99q0 90 -84 157q-78 63 -207 84q-115 20 -239 21q-272 0 -580 -150q-373 -182 -373 -428q0 -80 105 -80q96 0 217 78 q104 70 143 142q14 27 27 26q14 0 8 -16q-39 -115 -174 -197q-132 -80 -270 -80q-155 0 -155 93q0 7 1 14q31 268 330 457q297 186 716 186q139 0 265 -21q184 -27 290 -114q98 -82 99 -193q0 -47 -23 -102q-63 -150 -276 -230q-177 -65 -392 -65h-6q-102 0 -190 16 q29 -90 121 -407q29 -92 90 -187q83 -120 155 -120h1q86 0 143 174q10 41 22 41q10 0 19 -39q2 -8 2 -17q0 -50 -57 -131q-75 -112 -168 -112h-2q-86 0 -168 98q-70 82 -150 346q-65 212 -65 277q0 11 2 18q-246 -326 -353 -430q-213 -207 -436 -230q-18 -2 -49 -2 q-174 0 -174 132z" />
<glyph unicode="S" horiz-adv-x="1531" d="M-35 289q0 57 27 102q61 109 155 109q72 0 84 -121q29 -233 39 -266q31 -100 105 -170q86 -18 186 -19q221 0 424 84q223 92 318 254q39 63 38 113q0 96 -170 149l-360 82q-111 27 -177.5 88.5t-66.5 141.5q0 123 154 245q117 94 293 148q162 51 332 51q156 0 262 -48 t131 -136q6 -23 6 -45q0 -125 -125 -174q-77 -31 -129 -31q-33 0 -51 12q-4 4 -4 10q0 14 57 17q63 2 90 14q78 41 78 121q0 41 -23 86q-66 117 -317 117q-145 0 -287 -43q-151 -46 -239 -129q-106 -98 -107 -177q0 -119 236 -174l241 -45q145 -27 217 -73q94 -57 95 -164 q0 -43 -15 -92q-65 -221 -338 -338q-227 -100 -536 -101q-88 0 -154 9q66 -37 174 -64h-2q8 -2 8 -8q0 -18 -43 -19q-84 0 -209 101q-170 27 -253 94q-53 43 -97 121q-47 90 -47 168zM41 322q0 -157 111 -271q55 -57 149 -88q-55 61 -86 127q-46 101 -68 252 q-16 109 -34 109q-14 0 -28.5 -9.5t-29 -40t-14.5 -79.5z" />
<glyph unicode="T" horiz-adv-x="1353" d="M37 860q0 227 201 404q224 198 577 198h4q164 0 352 -47q43 -9 394 -172q299 -135 438 -135q94 0 141 53q25 27 25 57.5t-27 55.5q-14 20 -14 29q0 4 4 4q18 0 46 -36t28 -75q-1 -57 -58 -96q-72 -49 -170 -49q-154 0 -452 137q-348 160 -428 174q-86 18 -193 18 q-424 0 -667 -274q-29 -31 -64 -115q-43 -102 -43 -188q0 -119 84 -185q106 156 246 244q152 96 301 96q184 0 184 -143q0 -172 -203 -375q-200 -200 -370 -200h-2q-111 0 -111 94q0 33 17.5 57.5t41.5 18.5q0 -8 -2 -25.5t-2 -22.5q0 -30 89 -30h6q139 0 299 147 q150 139 182 277q8 31 8 55q0 92 -119 92q-117 0 -248 -94q-121 -86 -231 -234q8 -4 64 -16q2 0 16 -1t44 -2t62 -1q90 -4 91 -20q0 -29 -87 -29h-12q-70 0 -119 8q-43 6 -86 23q-158 -242 -157 -445q0 -262 202 -262q229 0 478 320l401 598q225 328 391 335l78 -18 q37 -21 37 -72v-10q-2 -20 -21 -20q-4 0 -30.5 5t-34.5 5q-141 0 -363 -305l-407 -570q-262 -305 -502 -305q-164 0 -231 92q-58 85 -58 259v6q2 213 131 425q-152 96 -151 285z" />
<glyph unicode="U" horiz-adv-x="1640" d="M29 381q0 322 606 756q123 88 280 147q178 70 316 70q70 0 125 -23q74 -31 74 -94q0 -61 -91 -205q-55 -88 -274 -387q-90 -121 -180 -274q-125 -211 -125 -283q0 -35 28 -35q55 0 207 115q359 273 848 891q78 98 125 98q18 0 19 -18q-1 -9 -7 -21q1 -6 1 -12 q0 -44 -48 -117l-241 -342q-147 -213 -244 -377q-129 -217 -121 -250l37 13q37 20 88 57t90 76q27 20 33 20l4 -4q0 -18 -55 -78q-142 -124 -212 -124h-1q-54 0 -54 39t82 188q137 256 379 612q-41 -49 -129 -145q-174 -178 -362 -367q-190 -188 -242 -229 q-150 -117 -278 -117q-74 0 -86 47q-2 6 -2 14q0 108 296 525q246 346 304 434q124 191 124 261q0 36 -26 44q-49 20 -115 21q-225 0 -575 -240q-229 -160 -383 -377q-147 -212 -148 -350q0 -100 82 -115q35 -6 66 -6q104 0 215 68q55 33 139 108l37 13q-39 -74 -156 -146 q-131 -80 -262 -80q-31 0 -61 6q-51 10 -84 56q-43 55 -43 137z" />
<glyph unicode="V" horiz-adv-x="1413" d="M-39 592q0 158 86 309q119 207 350 334q213 115 424 115q154 0 250 -66q102 -70 113 -203q1 -12 1 -24q0 -191 -173 -572q-197 -433 -197 -485q0 -8 3 -10t7 0q53 35 482 549q442 528 612 651q152 113 227 156q125 69 231 69h3q29 0 43 -2q55 -4 55 -57q0 -27 -18 -27 q-2 0 -29 9.5t-45 9.5q-109 0 -227 -64q-238 -127 -545 -455q-182 -195 -471 -559q-233 -295 -281 -321q-165 -95 -186 -95q-2 0 -2 1q-4 8 -4 20q0 68 114 344q47 106 138 320l94 276q49 138 49 203q0 141 -86 219q-78 70 -213 70q-172 0 -348 -109q-190 -123 -291 -315 q-88 -168 -88 -308q0 -111 59 -192q45 -63 111 -88q52 -18 104 -19q106 0 189 72q82 70 82 178q0 23 -2 35q-9 25 12 25q23 0 24 -33q4 -20 5 -35q0 -102 -101 -190q-102 -90 -233 -90q-84 0 -162 41q-166 89 -166 313z" />
<glyph unicode="W" horiz-adv-x="2324" d="M31 455q0 125 145 307q138 175 344 313q127 86 295 152q203 78 334 78q162 0 162 -107q0 -129 -195 -444q-138 -218 -362 -516q-186 -248 -189 -248q6 0 197 211q225 252 412 415q72 63 247 234q92 86 199 156q27 16 68 16q59 0 77 -29q-188 -233 -352 -571 q-117 -242 -117 -367q0 -105 82 -129q25 -8 56 -8q184 0 444 266q236 238 375 514q108 215 108 344q0 22 -4 43q-45 0 -92 48v-3q-31 25 -31 52q0 25 20.5 41t47.5 16q39 0 57 -35q8 -16 33 -41q16 -16 14 -24q12 -18 41 -19q22 0 55.5 24.5t55.5 24.5q16 0 16 -12 q0 -23 -39 -43q-22 -15 -49 -18h-65q25 -84 24 -121q0 -164 -155 -424q-158 -264 -404 -467q-249 -209 -442 -209q-47 0 -90 12q-119 33 -119 185q0 156 131 444l147 322l-200 -156q-94 -78 -193 -172q-96 -92 -338 -383l-237 -291q-53 -61 -96 -65h-6q-35 0 -35 47 q0 43 36 114l396 570q358 526 358 667q0 78 -143 78q-174 0 -486 -213q-168 -115 -299 -291q-123 -169 -123 -282q0 -88 82 -107q31 -8 70 -8q84 0 172 47q55 29 119 84q53 45 61 45t6 -14q-23 -78 -163 -148q-145 -71 -255 -71h-3q-29 0 -39 2h-2q-164 35 -164 164z M2472 1094l16 2h-2q-4 -2 -14 -2z" />
<glyph unicode="X" horiz-adv-x="1310" d="M-342 51q0 166 117 359q42 71 68 71h1q8 0 9 -10q0 -16 -15 -37q-112 -178 -112 -331q0 -87 36 -146q47 -66 125 -66q164 0 543 273q276 199 584 477l33 29q47 205 47 346q0 178 -74 227q-45 31 -119 31q-61 0 -125 -21q-233 -72 -385 -274q-129 -175 -129 -338 q0 -154 119 -154q66 0 162 60q24 18 24 20l2 -2q4 -4 -16 -24q-82 -82 -215 -82q-80 0 -127 41q-47 40 -47 110q0 13 2 27q25 272 272 475q229 186 471 186q66 0 115 -14q164 -53 164 -301q0 -84 -23 -203q213 188 434 357q252 193 338 217q73 21 111 21q18 0 29 -5 q39 -14 39 -35q-1 -18 -52 -16h-4q-136 0 -495 -291q-233 -188 -422 -377q-15 -43 -43 -141q-88 -319 -88 -434q0 -59 35 -60q83 0 294 209q35 35 35 13q0 -61 -153 -175q-139 -104 -209 -124q-25 -8 -45 -9q-68 0 -68 99q0 86 94 436l23 90q-453 -397 -793 -582 q-238 -129 -375 -129q-17 0 -32 2q-160 23 -160 205z" />
<glyph unicode="Y" horiz-adv-x="1806" d="M29 561q0 279 407 569q119 86 305 154q203 72 346 72q96 0 156 -35q66 -41 66 -113q0 -94 -121 -280q-109 -164 -357 -465q-51 -59 -94 -156q-43 -94 -43 -151q0 -55 43 -56q45 0 133 64q250 178 514 448q233 238 351 410q84 121 178 121q33 0 33 -21q0 -4 -4 -16 q-258 -451 -703 -1196q-131 -215 -291 -330q-137 -100 -260 -100q-78 0 -147 51q-80 59 -80 127q0 43 43 43q10 0 31 -4q25 -86 40 -117q31 -49 103 -55q9 -1 17 -1q252 0 618 689l368 657l-213 -227q-264 -276 -344 -356q-168 -168 -229 -205q-123 -74 -203 -74 q-117 0 -117 137q0 164 140 338q10 12 87 105.5t118 142.5q166 209 243 342q59 107 59 163q0 39 -28 54q-58 31 -135 31q-217 0 -600 -262q-160 -109 -256 -256q-92 -138 -92 -252q0 -129 116 -160q37 -10 72 -10q104 0 231 90q150 100 168 107q-20 -76 -161 -166 q-156 -96 -291 -97q-18 0 -56 4q-63 10 -108 74q-53 72 -53 168z" />
<glyph unicode="Z" horiz-adv-x="1513" d="M-166 4v6q0 31 31 62q34 34 58 34h1q4 0 8 -4q10 -16 88 -28q518 541 1485 1071l-61 12q-145 33 -346 33q-258 0 -428 -62q-37 -8 -97 -36q-88 -45 -118 -95q-16 -26 -16 -55q0 -12 3 -24q8 -23 2 -33.5t-10 -11.5t-14 -1q-23 0 -40.5 29t-17.5 70q0 25 11 59 q39 131 252 193q105 30 306 30h13q299 0 549 -45q31 -2 102 -18l113 61q16 8 51 9q76 0 76 -21q0 -8 -18 -14q-8 -6 -105 -60l80 -6q12 -1 22 -1q32 0 48 10q20 12 14 42q-4 10 4 11q12 0 29.5 -28t17.5 -51q0 -50 -67 -50q-10 0 -220 32q-346 -197 -737 -465 q-504 -346 -780 -606q313 35 637 64q37 2 106 2q256 0 403.5 -49.5t147.5 -130.5q0 -49 -59 -109q-78 -72 -107 -72q-10 0 -10 11q0 25 27 49q20 18 20 37q0 63 -198 118q-182 53 -365 56h-30q-144 0 -363 -33q-243 -35 -375 -35h-14q-33 -29 -41 -29q-4 0 -4 7q0 8 12 28 q-74 4 -76 37z" />
<glyph unicode="[" horiz-adv-x="1198" d="M47 39q0 244 264 752q267 507 467 645q53 35 189 34q207 0 207 -43q0 -8 -3 -26q-8 -2 -28 -2q-16 0 -73.5 4t-74.5 4q-90 0 -112 -14q-43 -27 -125 -123q-166 -197 -357 -551q-223 -410 -223 -596q0 -115 158 -115q18 0 77.5 5t75.5 5q59 0 60 -24q0 -29 -230 -29 q-117 0 -194.5 19.5t-77.5 54.5z" />
<glyph unicode="\" horiz-adv-x="1128" d="M72 1413q16 16 39 17q49 0 514 -619q471 -633 534 -807q45 -123 45 -199q0 -59 -35 -59q-29 0 -43 21q-9 15 0 18q23 12 23 51q0 29 -12 66q-66 172 -451 690q-330 442 -606 760q-33 38 -8 61z" />
<glyph unicode="]" horiz-adv-x="1138" d="M47 8q0 8 2 27q8 2 29 2q16 0 73.5 -4t73.5 -4q90 0 113 14q43 27 125 123q166 197 356 551q223 410 223 596q0 115 -157 114q-18 0 -77.5 -5t-76.5 -5q-59 0 -59 25q0 29 229 28q117 0 195 -19t78 -54q0 -246 -265 -752q-267 -507 -467 -645q-53 -35 -188 -35 q-207 0 -207 43z" />
<glyph unicode="^" horiz-adv-x="757" d="M131 692q0 23 125 123q127 106 154 109l12 -4q78 -86 256 -222l10 -20l-8 -14q-47 4 -154 71q-115 76 -145 109q-206 -172 -234 -172q-16 0 -16 20z" />
<glyph unicode="_" horiz-adv-x="1650" d="M16 -90q0 39 35 39h1516q51 -1 57 -58l-14 -14q-614 0 -1161 -14q-47 0 -199 -6q-123 -6 -199 -7q-35 0 -35 60z" />
<glyph unicode="`" horiz-adv-x="452" d="M76 797q0 27 20 26q12 0 35 -16q92 -68 215 -168q8 -6 8 -14q0 -10 -14 -11q-10 0 -117 64q-111 68 -129 82q-18 12 -18 37z" />
<glyph unicode="a" horiz-adv-x="843" d="M-16 106q-2 13 -2 27q0 149 200 348q217 217 391 217q47 0 74 -22q8 -8 15.5 -24.5t11.5 -28t6 -11.5q4 0 14.5 3t14.5 3q23 0 42 -17t21 -34q2 -4 -131 -202q-122 -179 -122 -253q0 -7 1 -12q10 -47 45 -47q106 0 389 353q6 8 13 8q10 0 10 -15q-1 -16 -19 -41 q-261 -350 -399 -350q-18 0 -35 6q-90 35 -90 136q0 35 8 69l-127 -123q-121 -106 -178 -106q-51 0 -99 34.5t-54 81.5zM70 84q9 -49 49 -49q119 0 323 260l217 299q-16 29 -53 29q-125 0 -338 -201q-200 -186 -200 -312q0 -13 2 -26z" />
<glyph unicode="b" horiz-adv-x="747" d="M227 633q244 350 371 350q27 0 48.5 -16.5t21.5 -38.5q0 2 -30 -31t-120 -129q-174 -190 -278 -330q-150 -205 -150 -299q0 -25 12 -49q14 -33 45 -33q90 0 211 140q100 123 123 206q-14 43 -14 107q-1 76 25 110q21 28 60 29q9 0 19 -2q35 -6 35 -63q0 -37 -16 -109 q-16 -53 -23 -80q6 -35 29 -80q33 -63 84 -63q45 0 104 65q12 14 25 15q10 0 12 -15q0 -11 -16 -34q-63 -76 -133 -76q-100 0 -162 147q-65 -144 -178 -245q-120 -111 -234 -111q-108 0 -108 161q0 132 237 474z" />
<glyph unicode="c" horiz-adv-x="579" d="M-16 127q0 144 178 332q182 188 325 188q47 0 77 -25.5t30 -62.5q0 -51 -25 -94q-29 -53 -82 -53t-53 32q0 23 27 68q29 47 28 49q0 4 -6 4q-57 -6 -159 -84q-96 -74 -134 -125l-79 -116q-20 -33 -37 -113q-2 -10 -2 -20q0 -34 22 -60q28 -33 76 -33q102 0 270 133 q135 106 217 215q9 12 25 13q15 0 15 -8q0 -7 -11 -21q-114 -151 -264 -258q-162 -115 -266 -115q-23 0 -41 7q-131 37 -131 147z" />
<glyph unicode="d" horiz-adv-x="956" d="M-16 106q-2 13 -2 27q0 149 200 348q217 217 391 217q58 0 80 -30q8 -10 19 -47q211 342 303 370q7 2 15 2q15 0 36 -7q31 -11 31 -30q0 -10 -10 -26q-164 -201 -244 -301q-195 -246 -250 -381q-11 -26 -17 -58q-6 -28 -5 -58v-9q1 -35 19.5 -58.5t55.5 -23.5 q152 0 395 281q20 20 31 22q18 4 19 -8q0 -8 -13 -23q-113 -135 -209 -209q-121 -92 -213 -108q-10 -2 -28 -2q-63 0 -97 46q-30 41 -30 93v13q4 60 22 114l-166 -166q-113 -104 -180 -104q-61 0 -104 33.5t-49 82.5zM70 84q9 -49 49 -49q88 0 293 241q36 43 245 322 q-15 25 -49 25q-127 0 -340 -201q-200 -186 -200 -312q0 -13 2 -26z" />
<glyph unicode="e" horiz-adv-x="526" d="M-68 127q0 144 179 332q182 188 325 188q47 0 77 -25.5t30 -62.5q0 -115 -183 -225q-164 -98 -272 -98q-16 0 -29 4q-31 -55 -30 -117q0 -106 100 -107q102 0 264 138q125 100 213 213q18 25 33 24q12 0 12 -12t-16 -35q-111 -145 -264 -256q-158 -115 -267 -115 q-23 0 -41 7q-131 37 -131 147zM90 285q12 -4 27 -4q78 0 202 77q135 89 168 187q4 10 4 17q0 26 -42 26q-61 0 -173 -92q-82 -68 -137 -140q-33 -45 -49 -71z" />
<glyph unicode="f" horiz-adv-x="495" d="M-498 -258q6 25 19 25q6 0 9 -14.5t11 -38t27 -42.5q30 -30 59 -30h2q174 0 318 215q82 123 223 442l111 266q-205 2 -205 49q0 20 22 37q15 12 31 13l193 -5q201 446 368 447q64 -1 129 -62q16 -16 17 -43q0 -63 -37 -63q-10 0 -21 16q-18 33 -61 33q-45 0 -84 -29 q-47 -33 -92 -106q-16 -27 -103 -193h25q223 0 297 7q8 -2 8 -9q0 -16 -145 -45q-137 -23 -226 -39q-63 -131 -153 -311q-184 -344 -244 -428q-178 -254 -348 -254q-59 0 -103.5 50.5t-46.5 111.5z" />
<glyph unicode="g" horiz-adv-x="757" d="M-172 -258q6 25 18 25q6 0 9.5 -14.5t11.5 -38t27 -42.5q30 -30 57 -30h2q117 0 250 153q88 102 194 299l103 203l-154 -156q-147 -141 -205 -141q-51 0 -99 36t-54 83q-2 13 -2 27q0 149 200 348q219 215 392 215q47 0 73 -23q8 -6 15.5 -22.5t11.5 -27.5t6 -11 q4 0 14.5 3t14.5 3q27 0 44 -19q13 -14 13 -28q0 -4 -2 -9q-2 -18 -59 -110q-72 -125 -119 -211q-166 -309 -254 -424q-188 -250 -359 -250q-59 0 -103 50.5t-46 111.5zM74 96q9 -49 49 -49q119 0 323 260l218 299q-12 29 -52 29q-127 0 -340 -201q-200 -189 -200 -313 q0 -13 2 -25z" />
<glyph unicode="h" horiz-adv-x="770" d="M-115 25q0 20 25 65q199 354 301 518q243 390 344 424q5 1 9 1q26 0 36 -42q-6 -43 -213 -311q-215 -272 -244 -356q76 55 228 161q224 157 295 166q9 1 17 1q58 0 58 -50q0 -9 -2 -14q0 -3 -147 -203q-135 -181 -135 -270q0 -47 35 -47q111 4 331 266q18 18 29 18 q8 0 8 -8q0 -16 -16 -39q-59 -74 -186.5 -185.5t-172.5 -111.5q-120 0 -120 140q0 82 73 210q39 66 121 197q-262 -131 -475 -387q-41 -61 -64 -92q-61 -86 -75 -86q-59 0 -60 35z" />
<glyph unicode="i" horiz-adv-x="462" d="M-31 113q0 12 4 37q18 111 123 278q115 186 189 188q20 0 45.5 -16t25.5 -33l-5 -7q-5 -7 -19.5 -24.5t-30.5 -38t-45 -58.5t-55 -72q-154 -200 -154 -283q0 -66 51 -66q43 0 117 46.5t115 80.5q104 88 157 154q37 47 56 47q8 0 8 -12q0 -21 -88 -113q-6 -6 -34 -34.5 t-38 -38t-37.5 -35t-42 -35.5t-41 -30.5t-47 -30t-46 -20.5t-51.5 -15.5t-52 -4.5q-104 0 -105 136zM367 778q0 57 77 58q31 0 58.5 -19.5t27.5 -48.5q0 -25 -25.5 -44t-51.5 -19q-35 0 -60.5 22.5t-25.5 50.5z" />
<glyph unicode="j" horiz-adv-x="411" d="M-543 -299q0 39 19 39q2 0 41 -51q41 -53 94 -54q164 0 373 371q129 231 176 375q-25 -29 -78 -78q-68 -61 -88 -61q-6 0 -6 6q0 18 26 43q39 33 92 108q58 83 68 93l68 71q41 39 82 39q55 0 55 -45q0 -8 -72 -135l-90 -156q-158 -301 -244 -420q-186 -266 -350 -266 q-61 0 -112 39q-53 41 -54 82zM340 780q0 59 78 60q31 0 58.5 -20.5t27.5 -49.5q0 -23 -25.5 -42t-52.5 -19q-35 0 -60.5 21.5t-25.5 49.5z" />
<glyph unicode="k" horiz-adv-x="806" d="M-57 68q0 88 268 489q260 389 358 459q8 6 33 6q63 0 64 -33q0 -16 -136 -176q-150 -176 -165 -211q186 96 297 96q63 0 108 -51q44 -44 44 -89q0 -6 -1 -11q-16 -117 -164 -193q-119 -63 -217 -63q-106 0 -147 26q-12 2 -19.5 -6t-3.5 -20q57 -254 191 -254q70 0 179 78 t228 219q14 14 27 14q10 0 10 -12q0 -11 -14 -31q-111 -135 -209 -213q-150 -117 -254 -117q-162 0 -275 256q-18 -27 -65 -114l-64 -127q-74 27 -73 78zM203 350q18 0 58 -3l40 -3q92 0 242 76q172 86 172 182q0 16 -18.5 32.5t-39.5 16.5q-111 0 -258 -86 q-163 -98 -196 -215z" />
<glyph unicode="l" horiz-adv-x="497" d="M-6 125q0 68 35 156q59 139 190 350q240 389 340 389q20 0 42 -15.5t24 -33.5q-47 -63 -144 -193q-172 -231 -268 -379q-6 -10 -31.5 -49t-38 -60.5t-30 -57t-25.5 -66.5t-8 -62q0 -63 65 -63q70 0 176.5 71.5t206.5 194.5q25 33 43 33q10 0 11 -12q0 -10 -35 -52 l-49 -55q-205 -225 -342 -225q-68 0 -115 31.5t-47 97.5z" />
<glyph unicode="m" horiz-adv-x="1292" d="M-76 182q0 12 17 29q76 76 131 145q63 82 200 277q23 31 64 31t41 -39q0 -15 -105 -191q-113 -195 -125 -241q84 92 252 247q252 233 332 234q25 0 45.5 -14.5t20.5 -36.5q0 -12 -80 -150q-78 -141 -86 -168q227 190 227 193q192 149 276 149h1q25 0 46 -15.5t21 -35.5 q0 -4 -131 -172q-135 -170 -151 -279q-4 -37 14 -55t61 -18q53 0 146.5 66.5t189.5 178.5q37 41 51 41q12 0 13 -10q-1 -15 -19 -33q-100 -121 -207 -200q-125 -90 -190 -90q-139 0 -139 129q0 12 4 36q12 68 69 179q58 114 129 202q-127 -61 -282 -211q-176 -172 -242 -348 q-10 -16 -35 -16q-49 0 -49 55q22 114 92 258q23 47 133 275q-160 -104 -299 -254q-84 -90 -194 -232q-80 -100 -92 -100q-27 0 -46.5 24.5t-19.5 47.5q0 27 47 137q18 45 60 135l-123 -129q-45 -45 -58 -45q-10 0 -10 14z" />
<glyph unicode="n" horiz-adv-x="825" d="M-76 182q0 12 17 29q76 76 131 145q53 70 219 267q18 25 39 24q55 0 55 -43q0 -12 -6 -24q-184 -255 -221 -387q477 477 579 477q9 1 18 1q58 0 58 -50q0 -10 -2 -17q-6 -14 -84 -115q-90 -106 -141 -186q-74 -117 -74 -192q0 -55 29 -56q47 0 147 82q72 61 166 166 q4 4 15.5 18.5t21.5 25.5t12 11q8 0 8 -16q0 -25 -28 -57q-254 -289 -361 -289q-100 0 -100 110.5t82 253.5l131 213q-139 -102 -277 -256q-80 -90 -184 -223q-74 -96 -88 -96q-31 0 -49 29q-16 23 -17 43q0 55 35 137q18 45 60 135l-123 -129q-45 -45 -58 -45q-10 0 -10 14 z" />
<glyph unicode="o" horiz-adv-x="575" d="M-20 137q0 123 178 344q180 223 291 224q104 0 104 -111q0 -29 -10 -74q2 -6 20 -6q55 0 131 39q-2 -35 -162 -100q3 -8 3 -19q0 -73 -138 -239q-162 -199 -276 -199h-33q-53 0 -84 55q-25 40 -24 86zM76 121q2 -63 49 -64q88 0 225 162q133 157 133 227q-33 18 -82 95 q-70 0 -200 -168q-125 -159 -125 -247v-5z" />
<glyph unicode="p" horiz-adv-x="772" d="M-205 -209q0 141 232 483q221 329 307 357q20 4 26 4q35 0 35 -76q20 20 88 39q57 16 92 20h14q75 0 127 -40q56 -43 56 -115q0 -166 -199 -322q-181 -141 -319 -141q-92 0 -127 10q-49 14 -100 76q-35 -29 -90 -139q-63 -125 -64 -209q0 -39 39 -103q4 -10 -8 -19 q-8 -5 -15 -5q-4 0 -8 2q-86 46 -86 178zM57 131q0 -37 68 -59q45 -14 102 -15q114 0 265 117q176 139 176 309q0 78 -97 78q-88 0 -163 -39q-35 -16 -189 -176q-162 -168 -162 -215z" />
<glyph unicode="q" horiz-adv-x="679" d="M51 332q95 108 191 160q223 124 364 124h2q45 0 56 -34v-66l24 -18q10 -10 10 -15q0 -8 -6 -16l-162 -154q-154 -158 -211 -288q12 4 66 4q58 0 92 -56q27 -41 27 -88q0 -98 -86 -231q-94 -150 -205 -150q-106 0 -107 158q0 96 52 217l94 219q-121 -84 -193 -90 q-8 -1 -16 -1q-100 0 -100 110q0 88 108 215zM6 100q-1 -6 -1 -12q0 -39 48 -39q102 0 275 178l258 275q-4 12 -27 12q-104 0 -303 -129q-221 -143 -250 -285zM170 -367q0 -25 14 -51q18 -37 47 -37q76 0 140 142q53 125 51 188q-4 66 -33 86q-25 18 -90 21 q-39 -61 -82 -168q-47 -123 -47 -181z" />
<glyph unicode="r" horiz-adv-x="806" d="M-10 242q0 10 10 26q6 12 25 33q178 207 251 350q47 178 119 178q47 0 47 -43q0 -39 -51 -102l-49 -66q0 -43 64 -43q37 0 81 27l54 33q4 2 12 2q25 0 43 -20.5t12 -36.5l-141 -179q-131 -168 -131 -270q0 -92 90 -92q94 0 231 100q82 59 150 133l49 58q16 16 21 16 q14 0 14 -14q-1 -17 -19 -37l-65 -74q-55 -57 -123 -110q-162 -121 -266 -121q-154 0 -154 170q0 86 53 205q37 86 91 155q-10 -2 -27 -2q-49 0 -82 70l-152 -197q-127 -158 -147 -158q-10 0 -10 9z" />
<glyph unicode="s" horiz-adv-x="735" d="M-43 215q0 12 10 23q68 84 230 241l258 242q111 104 131 104q65 0 65 -48q0 -26 -26 -58q-12 -14 -21.5 -27.5t-14.5 -19.5l-5 -6q-37 -65 -68 -228q-45 -233 -65 -311q170 2 350 221q20 20 28 21q12 0 13 -11q-1 -16 -19 -39q-119 -139 -221 -194q-61 -31 -160 -51 l-65 -43q-59 -35 -141 -35q-92 0 -142 61q-43 53 -76 179q-37 -37 -51 -37q-10 0 -10 16zM102 281q-1 -12 -1 -23q0 -70 44 -111q47 -47 115 -47q47 0 78 23q41 23 86 209q35 145 43 272l8 70q-113 -84 -260 -238q-109 -113 -113 -155z" />
<glyph unicode="t" d="M-14 133q0 80 73 223q74 147 113 219q-29 -6 -50 -6q-59 0 -59 47q0 20 23 37q12 8 27 13q6 0 18 2h119q37 47 76 100q55 70 88 82h3q14 0 44 -14q33 -18 33 -37q0 -27 -99 -137q64 -3 177 -3h59q192 5 198 5q6 -3 7 -7q0 -18 -242 -49q-268 -35 -289 -41 q-40 -34 -135 -190q-113 -190 -113 -271q0 -75 102 -75h3q49 0 129 30.5t123 57.5q115 72 245 211q29 29 39 28q6 0 7 -8q0 -16 -31 -53q-106 -131 -244 -213q-129 -80 -264 -94q-19 -2 -35 -2q-64 0 -100 24q-45 30 -45 121z" />
<glyph unicode="u" horiz-adv-x="870" d="M-39 213q0 10 19 35l282 332q53 61 117 61q47 0 47 -37q0 -14 -12 -26q-82 -76 -193 -234q-137 -194 -138 -280q0 -5 1 -9q2 -27 25 -26q86 0 249 170q57 57 209 250q160 199 209 198q68 0 74 -55q4 -18 -86 -121q-117 -141 -160 -203q-80 -118 -80 -181v-9q3 -37 31 -37 q14 0 33 8q141 61 338 287q12 14 24.5 14t12.5 -12q-1 -15 -15 -31q-88 -102 -192 -194q-133 -115 -183 -125q-10 -2 -28 -2q-49 0 -83 26.5t-34 69.5q0 41 14 90q16 53 23 80q-236 -274 -369 -275q-83 0 -92 105q-1 7 -1 15q0 88 108 237q-59 -53 -121 -123q-8 -8 -21 -8 q-8 0 -8 10z" />
<glyph unicode="v" horiz-adv-x="616" d="M-29 62q0 46 97 300q100 266 137 297q8 8 22 9q23 0 43.5 -19.5t22.5 -46.5q0 -2 -103 -242q-94 -218 -94 -270v-6q89 28 301 203q240 201 240 350q0 90 -90 131q-14 6 -15 18q0 19 23 19q61 0 104 -41t43 -115q0 -162 -268 -405q-227 -205 -366 -250q-23 0 -59 24 q-38 24 -38 44z" />
<glyph unicode="w" horiz-adv-x="919" d="M-39 61q0 49 121 316q129 285 190 285q23 0 41.5 -22t18.5 -38q0 -6 -113 -205q-111 -201 -108 -241q195 236 206 250q199 229 261 229q23 0 44 -19.5t21 -37.5q0 -12 -51 -78q-63 -86 -92 -138q-51 -94 -51 -167q0 -129 86 -129h26q111 0 209 180q84 158 84 261v13 q-2 72 -27 113q-4 4 -4 9t3 9t10 4q37 0 57 -45q25 -39 25 -135q0 -147 -125 -297q-132 -160 -283 -160q-72 0 -119 74q-41 66 -41 144q0 70 33 176q-59 -59 -164 -191q-125 -158 -166 -225q-20 0 -55 22q-37 22 -37 43z" />
<glyph unicode="x" horiz-adv-x="874" d="M-72 185q0 11 41 55q90 100 176 231q131 199 189 250q37 35 88 35q31 0 49 -11.5t12 -44.5l-2 -11q-2 -11 -5 -31.5t-6 -48t-7 -69.5t-6 -87q100 96 452 395q4 4 11 4q14 0 30.5 -17.5t16.5 -35.5q0 -16 -17 -33q-65 -52 -245 -184q-145 -104 -252 -203q-2 -42 -2 -78 q1 -112 19 -173q24 -81 89 -81q117 0 361 281q20 20 30.5 20t10.5 -12q-1 -15 -17 -33q-127 -150 -203 -213q-147 -123 -243 -123q-98 0 -129 142q-10 57 -15 172q-250 -266 -374 -482q-6 -8 -17 -8q-25 0 -24 23q0 6 4 10q190 301 411 528q8 281 11 316q-47 -10 -201 -238 q-41 -61 -89 -120.5t-75 -88t-35 -35.5q-14 -12 -26 -12q-11 0 -11 11z" />
<glyph unicode="y" horiz-adv-x="757" d="M-115 -238q25 -31 66 -71q53 -51 104 -51q117 0 252 186q98 137 193 346l78 188l-302 -235q-139 -109 -223 -109q-45 0 -73 35q-25 27 -25 66q0 88 151 289q150 202 227 202h1q63 0 63 -47q0 -18 -182 -213q-180 -193 -180 -260q0 -27 35 -27q66 0 284 170 q176 137 277 238q23 27 63 80q39 45 78 45q55 0 55 -45q0 -9 -86 -135q-98 -147 -102 -156q-63 -123 -195 -358q-199 -319 -397 -320q-66 0 -115 55q-47 55 -47 122v5z" />
<glyph unicode="z" horiz-adv-x="790" d="M-27 78q0 18 12.5 45t24.5 27q18 0 8 -31q-6 -31 18.5 -31t59.5 25l-78 59q-4 4 -4 10q0 14 20.5 34t37.5 20q6 0 94 -70q82 92 170 182q133 141 203 195q-163 49 -240 49q-23 0 -33 -2q-31 -4 -54.5 -25.5t-23.5 -48.5t29 -49q16 -12 16 -21q0 -12 -10 -12q-20 0 -55 41 q-33 41 -33 84q0 72 105 94q55 10 98 11q72 0 297 -74q29 16 61 16q86 0 86 -51q0 -20 -26.5 -37.5t-61.5 -17.5q-39 0 -69 14q-194 -120 -418 -381l74 -57q63 -41 135 -51q43 -6 80 -7q106 0 166 41q51 33 51 91q0 27 -8 45q-12 29 16 28q10 0 14 -10q16 -37 17 -70 q0 -82 -78 -135t-201 -53q-23 0 -72 4q-84 8 -151 47q-35 18 -113 78q-52 -37 -80 -49q-18 -8 -37 -8q-47 0 -47 51z" />
<glyph unicode="{" horiz-adv-x="661" d="M18 530l23 33q145 16 201 60q70 51 96 182l45 252q31 127 100 184q88 72 262 70h5q12 0 22 -19l-27 -10q-158 0 -221 -88q-43 -59 -71 -223q-8 -53 -37 -170q-68 -217 -238 -258q135 -49 135 -187q0 -68 -34 -217q-33 -139 -33 -217q0 -94 57 -119l133 -24l19 -17 q-29 -12 -39 -12q-115 0 -172 29q-80 41 -80 151q0 74 37 217.5t37 219.5q0 160 -220 163z" />
<glyph unicode="|" horiz-adv-x="448" d="M104 -207q0 4 8.5 38t27 116t36.5 174q68 393 68 780q0 160 -13 242l-14 59q-10 41 -10 60q0 20 35 20q82 0 82 -176q0 -186 -56 -672q-61 -539 -112 -608q-25 -35 -50 -35q-2 0 -2 2z" />
<glyph unicode="}" horiz-adv-x="870" d="M31 -227q22 9 104 18q138 9 197 148l80 249q51 162 118 224q82 80 201 114q-150 37 -149 162q0 86 51 237.5t51 235.5q0 76 -55 94l-121 19l-16 14l28 17q108 0 160 -19q90 -31 90 -125q0 -88 -57 -246q-55 -158 -56 -241q0 -68 62 -103q51 -25 143 -32l-26 -35 q-178 -4 -256 -109q-45 -63 -99 -260q-45 -182 -110 -260q-102 -121 -316 -121h-2q-12 0 -22 19z" />
<glyph unicode="~" horiz-adv-x="620" d="M98 819q0 29 86 82q33 20 76 21q31 0 98 -23q61 -20 97 -20q51 0 84 45q12 0 12 -9q0 -31 -80 -86q-29 -18 -57 -18q-37 0 -103 27q-68 29 -100 28q-35 0 -67.5 -26.5t-43.5 -26.5q-2 2 -2 6z" />
<glyph unicode="&#xa2;" horiz-adv-x="604" d="M51 -72q0 8 10 60q39 203 111 299q-49 33 -49 112q0 86 96 189q98 106 182 96q18 39 91 158q74 127 90 139q14 10 24 10q23 0 23 -14q0 -6 -2 -8q-64 -90 -191 -299q10 -10 10 -27q0 -18 -24 -61q-25 -41 -41 -41q-6 0 -6 8q0 4 6 22.5t6 24.5q0 35 -45 35 q-61 0 -108.5 -78t-47.5 -141q0 -104 93 -105q113 0 241 160q14 20 29 20q6 0 6 -6q0 -25 -76 -94q-63 -57 -100 -82q-63 -41 -129 -41q-12 0 -33 4q-70 -92 -139 -350q-4 -4 -6 -4q-20 0 -21 14z" />
<glyph unicode="&#xa3;" horiz-adv-x="1804" d="M78 240q0 76 88 75q125 0 563 -221q139 170 270 553h-329q-25 0 -25 17q0 47 49 47h328q162 483 307 651q121 135 260 135q78 0 127 -50t49 -132q0 -201 -223 -307q-14 -8 -26 -9q-10 0 -11 11q0 23 35 49q8 4 25.5 19.5t27.5 23.5q109 100 109 235q0 47 -28.5 72 t-67.5 25q-47 0 -94.5 -30t-90.5 -87t-66.5 -96t-58.5 -101q-57 -96 -186 -409h352q16 0 17 -15q0 -49 -60 -49h-334q-92 -223 -131 -303q-94 -195 -176 -270q109 -68 279 -107q166 -45 295 -45q131 0 231 37q141 45 141 152q0 41 -38 79q-37 37 -37 48q0 12 10 12 q8 0 16 -8q117 -86 117 -162q0 -70 -35 -119t-95 -72.5t-122.5 -34t-134.5 -10.5q-135 0 -317.5 53.5t-358.5 145.5q-158 -100 -297 -100q-127 0 -235 84q-119 90 -119 213zM211 207q0 -84 74 -152q76 -61 164 -61q125 0 215 63q-53 41 -211 105q-158 61 -215 61 q-27 0 -27 -16z" />
<glyph unicode="&#xa5;" horiz-adv-x="1124" d="M211 336q14 49 63 49h218l112 176h-91h-77q-26 0 -51 1t-34 6t-7 14q12 49 62 49h235q217 389 254 534q41 164 -90 164q-113 0 -289 -124t-248 -222q-19 -26 -27 3q-11 43 27 91q92 117 251 207t296 90q115 0 155 -54t5 -185q-39 -150 -195 -406l-57 -98h12 q193 205 498 444q387 315 612 316q61 0 94 -25t23 -61q-6 -12 -8 -13l-15 35q-18 33 -63 33q-123 0 -476 -254t-564 -473l282 2l-2 -4q-2 -8 -14 -14.5t-45 -12.5t-63.5 -10t-96.5 -11.5t-119 -15.5l-55 -59q-4 -6 -38 -54t-46 -69l352 10q2 -2 0 -6l-2 -4q-2 -8 -55 -21.5 t-146.5 -25.5t-185.5 -16q-141 -240 -168 -334q-16 -66 17 -66q14 0 52 20.5t68.5 41t28.5 20.5q10 0 8 -12q-8 -31 -97 -75t-122 -44q-100 0 -63 145q29 104 133 299q-39 0 -86 1t-72 1t-49.5 1.5t-33.5 5.5t-7 10z" />
<glyph unicode="&#xa9;" horiz-adv-x="1306" d="M84 379q0 242 260 469q250 221 496 221q145 0 247.5 -90.5t102.5 -233.5q0 -238 -252 -462q-248 -223 -494 -224q-145 0 -249 86q-111 89 -111 234zM158 377q0 -123 98 -201q88 -74 217 -74q217 0 428 205t211 422q0 131 -82 215t-211 84q-229 0 -446 -211 q-215 -211 -215 -440zM268 367q0 188 205 374q199 180 391 181q101 0 101 -82q0 -61 -37 -66l-10 8q6 55 10 52q-4 70 -74 69q-160 0 -338 -192q-178 -190 -178 -353q0 -98 96 -98q102 0 264 88q150 83 148 90q6 0 6 -6q0 -70 -174 -137q-154 -59 -238 -59q-71 0 -116 30 q-55 33 -56 101z" />
<glyph unicode="&#xad;" d="M39 481q0 20 17.5 34.5t33.5 14.5q8 0 21 2h53q45 2 115 0q227 -3 305 5q16 -35 -160 -66q-88 -12 -229 -35q-29 -8 -91 2q-66 12 -65 43z" />
<glyph unicode="&#xae;" horiz-adv-x="1306" d="M84 379q0 242 260 469q250 221 496 221q145 0 247.5 -90.5t102.5 -233.5q0 -238 -252 -462q-248 -223 -494 -224q-145 0 -249 86q-111 89 -111 234zM158 377q0 -123 98 -201q88 -74 217 -74q160 0 324 119q-76 18 -150 133q-57 88 -86 187q-18 0 -24 6l22 8l14 10l19 -6 q358 49 358 199q0 117 -231 116q-78 0 -203 -38q-120 -34 -197 -74q-162 -193 -161 -385zM285 229q0 90 164 328q133 199 239 305l45 -22q-6 -10 -65 -88q-154 -195 -207 -275q-129 -188 -146 -299q-4 -23 -8 -22q-23 0 -22 73zM381 827q184 72 346 72q98 0 172 -31 q102 -41 102 -125q0 -102 -145 -161q-104 -43 -233 -47q27 -96 73 -175q63 -104 140 -108q276 221 276 477q0 131 -82 215t-211 84q-225 0 -438 -201z" />
<glyph unicode="&#xb4;" horiz-adv-x="452" d="M98 543q0 8 8 14l216 166q23 18 34 18q18 0 19 -26q0 -23 -17 -39q-18 -14 -129 -82q-102 -64 -116.5 -64t-14.5 13z" />
<glyph unicode="&#x2000;" horiz-adv-x="778" />
<glyph unicode="&#x2001;" horiz-adv-x="1556" />
<glyph unicode="&#x2002;" horiz-adv-x="778" />
<glyph unicode="&#x2003;" horiz-adv-x="1556" />
<glyph unicode="&#x2004;" horiz-adv-x="518" />
<glyph unicode="&#x2005;" horiz-adv-x="389" />
<glyph unicode="&#x2006;" horiz-adv-x="259" />
<glyph unicode="&#x2007;" horiz-adv-x="259" />
<glyph unicode="&#x2008;" horiz-adv-x="194" />
<glyph unicode="&#x2009;" horiz-adv-x="311" />
<glyph unicode="&#x200a;" horiz-adv-x="86" />
<glyph unicode="&#x2010;" d="M39 481q0 20 17.5 34.5t33.5 14.5q8 0 21 2h53q45 2 115 0q227 -3 305 5q16 -35 -160 -66q-88 -12 -229 -35q-29 -8 -91 2q-66 12 -65 43z" />
<glyph unicode="&#x2011;" d="M39 481q0 20 17.5 34.5t33.5 14.5q8 0 21 2h53q45 2 115 0q227 -3 305 5q16 -35 -160 -66q-88 -12 -229 -35q-29 -8 -91 2q-66 12 -65 43z" />
<glyph unicode="&#x2012;" d="M39 481q0 20 17.5 34.5t33.5 14.5q8 0 21 2h53q45 2 115 0q227 -3 305 5q16 -35 -160 -66q-88 -12 -229 -35q-29 -8 -91 2q-66 12 -65 43z" />
<glyph unicode="&#x2013;" horiz-adv-x="831" d="M39 481q0 20 17.5 34.5t33.5 14.5h2h10h16q9 0 22.5 1t29.5 1h164q104 2 174 0q227 -3 303 5q6 -12 -10.5 -22.5t-53 -22t-94.5 -21.5q-88 -12 -229 -35q-43 -10 -205 2q-180 12 -180 43z" />
<glyph unicode="&#x2014;" horiz-adv-x="1239" d="M39 453q0 23 19.5 50t31.5 27h3h15h24q13 0 35.5 1t47.5 1h242q150 2 219 0q422 -7 569 5q7 -15 -49 -30q-68 -17 -242 -36q-121 -10 -362 -35q-51 -14 -318 -14q-236 0 -235 31z" />
<glyph unicode="&#x2018;" horiz-adv-x="258" d="M29 694q0 89 73 166q66 68 97 60q8 -2 8 -6.5t-47 -57.5q-45 -49 -41 -94q2 -16 28.5 -39t26.5 -35q0 -61 -61 -61q-29 0 -54 18q-31 22 -30 49z" />
<glyph unicode="&#x2019;" horiz-adv-x="284" d="M109 606l4 5q4 5 17 19.5t26 28.5q49 53 43 97q-2 16 -29 39.5t-27 35.5q0 61 60 62q31 0 58.5 -19.5t27.5 -48.5q0 -89 -74 -166q-66 -68 -98 -59q-8 2 -8 6z" />
<glyph unicode="&#x201c;" horiz-adv-x="421" d="M29 694q0 89 73 166q66 68 97 60q8 -2 8 -6.5t-47 -57.5q-45 -49 -41 -94q2 -16 28.5 -39t26.5 -35q0 -61 -61 -61q-29 0 -54 18q-31 22 -30 49zM236 694q0 89 73 166q66 68 99 60q8 -2 8 -7q0 -3 -49 -55q-47 -53 -41 -96q2 -16 28.5 -39t26.5 -35q0 -61 -59 -61 q-31 0 -58.5 19.5t-27.5 47.5z" />
<glyph unicode="&#x201d;" horiz-adv-x="421" d="M-10 606l4 5q4 5 17.5 19.5t25.5 28.5q49 53 43 97q-2 16 -28.5 39.5t-26.5 35.5q0 61 59 62q31 0 58.5 -19.5t27.5 -48.5q0 -89 -74 -166q-66 -68 -98 -59q-8 2 -8 6zM199 606q0 4 45 56q47 53 43 94q-2 16 -29 39.5t-27 35.5q0 61 62 62q31 0 57.5 -19.5t26.5 -48.5 q0 -88 -72 -166q-66 -68 -98 -59q-8 2 -8 6z" />
<glyph unicode="&#x2022;" horiz-adv-x="1099" d="M111 485.5q0 182.5 129 311.5q131 131 315 131q182 0 311 -131q131 -130 131 -312q0 -184 -131 -315q-129 -129 -311 -129t-315 129q-129 133 -129 315.5z" />
<glyph unicode="&#x2026;" horiz-adv-x="1138" d="M233 70q0 59 78 59q31 0 58.5 -20.5t27.5 -49.5q0 -23 -26.5 -42t-53.5 -19q-35 0 -59.5 21.5t-24.5 50.5zM571 70q0 59 78 59q31 0 58.5 -20.5t27.5 -49.5q0 -23 -26.5 -42t-53.5 -19q-35 0 -59.5 21.5t-24.5 50.5zM901 70q0 59 78 59q31 0 58.5 -20.5t27.5 -49.5 q0 -23 -26.5 -42t-53.5 -19q-35 0 -59.5 21.5t-24.5 50.5z" />
<glyph unicode="&#x202f;" horiz-adv-x="311" />
<glyph unicode="&#x205f;" horiz-adv-x="389" />
<glyph unicode="&#x20ac;" horiz-adv-x="1486" d="M-137 481q0 20 17.5 34.5t33.5 14.5h2h9h17q9 0 22 1t30 1h108q28 77 68 154q-147 12 -147 41q0 23 17 36t34 13h2h9h17q9 0 23 1t31 1q12 0 36.5 1t34.5 1q70 98 144 174q170 178 409 281q227 96 437 96q111 0 192 -26q223 -70 223 -281q0 -111 -94 -227 q-58 -71 -97 -51q-27 14 -6 45q7 10 19 18q92 101 92 227q0 135 -98 199q-82 57 -221 57q-201 0 -404 -100q-250 -121 -440 -363q-14 -16 -39 -49q264 0 322 -2q258 -2 401 4q11 -17 -46 -33q-52 -15 -165 -30l-301 -37q-31 -6 -276 -2q-47 -82 -70 -148q150 4 246 0 q299 -3 401 5q22 -35 -209 -66q-113 -12 -303 -35q-41 -8 -164 -4q-10 -47 -10 -106q0 -187 135 -295t363 -92q188 12 366 102q158 82 273 209q33 37 51 37q12 0 12 -19q0 -25 -22 -47q-109 -115 -295 -213q-223 -117 -426 -137q-61 -4 -88 -4q-266 0 -392 168 q-121 158 -69 399l-35 4q-180 12 -180 43z" />
<glyph unicode="&#x2122;" horiz-adv-x="1343" d="M55 1255q14 27 277 45q213 16 313 17q45 -1 45 -17q0 -27 -141 -40q-151 -15 -166 -43q-37 -70 -78 -197q-47 -158 -63 -205q-14 -51 -54 -137q-12 -18 -43 -19q-37 0 -36 27q0 25 77 215q66 156 101 234q25 71 24 86q0 18 -57 18q-16 0 -73.5 -5t-74.5 -5q-43 0 -51 26z M520 686q0 6 78 203q80 197 92 235q2 35 10 101q10 72 50 71q14 0 26 -45q14 -80 39 -239q41 -176 109 -176q61 0 202 221q144 221 148 221q24 0 24 -55q0 -14 -10 -70q-10 -39 -16 -76q-6 -147 -29 -346q-23 -35 -72 -35q-23 0 -22 19q0 8 2 16q45 240 66 338 q-215 -276 -314 -276q-104 0 -182 276q-23 -49 -59 -188q-35 -131 -64 -176q-20 -33 -55 -33q-23 0 -23 14z" />
<glyph unicode="&#xe000;" horiz-adv-x="850" d="M0 850h850v-850h-850v850z" />
</font>
</defs>
</svg>
